Coordinates
version=1
nRows=15
nColumns=42
inDegrees=yes

Units are S.I. units (second, meters, Newtons, ...)
If the header above contains a line with 'inDegrees', this indicates whether rotational values are in degrees (yes) or radians (no).

endheader
time	pelvis_tilt	pelvis_list	pelvis_rotation	pelvis_tx	pelvis_ty	pelvis_tz	hip_flexion_r	hip_adduction_r	hip_rotation_r	knee_angle_r	knee_adduction_r	knee_angle_r_beta	ankle_angle_r	subtalar_angle_r	mtp_angle_r	hip_flexion_l	hip_adduction_l	hip_rotation_l	knee_angle_l	knee_adduction_l	knee_angle_l_beta	ankle_angle_l	subtalar_angle_l	mtp_angle_l	lumbar_extension	lumbar_bending	lumbar_rotation	arm_flex_r	arm_add_r	arm_rot_r	elbow_flex_r	pro_sup_r	wrist_flex_r	wrist_dev_r	arm_flex_l	arm_add_l	arm_rot_l	elbow_flex_l	pro_sup_l	wrist_flex_l	wrist_dev_l
      0.85000000	     10.64220918	      0.02896351	     -7.11833405	      0.24714569	      0.84145230	     -0.29153061	      9.18151536	     -6.20114051	    -13.31710418	     53.63077399	     -8.30508004	      0.93603359	     10.11625365	     -2.82998609	     -7.53197968	    -12.57192050	      4.35732723	     -8.40798491	      9.11365485	      5.08322055	      0.15906328	     16.60628844	     -1.22267844	     -7.53197968	    -20.52307872	     -2.93799506	      6.36160946	      1.61119623	    -15.28278640	     -5.40246747	     34.09979505	     90.00000001	      0.00000000	      0.00000000	     -3.43521720	     -8.04682281	    -33.43226766	     32.39421731	     90.00000001	      0.00000000	      0.00000000
      0.86000000	     10.42518786	     -0.48045536	     -6.59327728	      0.26164196	      0.84160728	     -0.29215717	     10.39461970	     -5.28277000	    -13.97575434	     50.58029768	     -7.74415924	      0.88279273	     10.60232767	     -2.62546773	     -7.53017255	    -14.30610635	      3.83800753	     -8.27170296	      7.62149528	      5.22015193	      0.13302019	     16.85297806	     -0.47971305	     -7.53017255	    -20.28608635	     -2.04021106	      5.59259306	      1.57769218	    -15.19297693	     -5.64256384	     33.73303381	     90.00000001	      0.00000000	      0.00000000	     -3.09625588	     -8.16919931	    -30.56022749	     34.00526378	     90.00000001	      0.00000000	      0.00000000
      0.87000000	     10.19904331	     -0.86136002	     -6.06474020	      0.27622998	      0.84120602	     -0.29282642	     11.47032910	     -4.58893758	    -14.49102960	     47.28393006	     -6.88765685	      0.82526026	     10.95073986	     -2.75685186	     -7.52885670	    -15.91312417	      3.43346557	     -8.29050052	      6.31651393	      5.36144730	      0.11024397	     17.22106476	      0.39401388	     -7.52885670	    -19.99663073	     -1.28936045	      4.76822306	      1.56717949	    -15.12285150	     -5.86788393	     33.33025732	     90.00000001	      0.00000000	      0.00000000	     -2.66915187	     -8.28185628	    -28.39368779	     35.61858558	     90.00000001	      0.00000000	      0.00000000
      0.88000000	      9.99373930	     -1.14722877	     -5.50519464	      0.29089127	      0.84033102	     -0.29348307	     12.36167759	     -4.08451001	    -15.03658509	     43.72447561	     -5.85129277	      0.76313606	     11.16103218	     -3.06255591	     -7.52762542	    -17.41622438	      3.10737652	     -8.42904529	      5.23111139	      5.48830509	      0.09130012	     17.54123336	      1.23134922	     -7.52762542	    -19.70665416	     -0.65216042	      3.92856128	      1.50675429	    -15.04955905	     -6.14804922	     33.03407009	     90.00000001	      0.00000000	      0.00000000	     -2.21723760	     -8.48572559	    -26.23947096	     37.26632112	     90.00000001	      0.00000000	      0.00000000
      0.89000000	      9.73204639	     -1.24574472	     -4.95022866	      0.30552722	      0.83890993	     -0.29430606	     13.22966229	     -3.88324014	    -15.57207982	     40.04890842	     -4.67456404	      0.69898531	     11.35477635	     -3.29473612	     -7.52659307	    -18.69240667	      2.98064691	     -8.69523031	      4.39888937	      5.62036055	      0.07677510	     17.89286281	      2.03779425	     -7.52659307	    -19.34001601	     -0.20939376	      3.03272562	      1.44687776	    -15.01509301	     -6.43924531	     32.76213592	     90.00000001	      0.00000000	      0.00000000	     -1.72584331	     -8.68477283	    -24.43585909	     38.88608219	     90.00000001	      0.00000000	      0.00000000
      0.90000000	      9.53205600	     -1.25002726	     -4.42869319	      0.32019164	      0.83716129	     -0.29500119	     13.87815796	     -3.83233443	    -16.18284378	     36.16523436	     -3.42747857	      0.63120241	     11.46490708	     -3.30992320	     -7.52556778	    -19.93854399	      2.95607895	     -9.11738059	      3.76489519	      5.74022252	      0.06570982	     18.26377732	      2.79862794	     -7.52556778	    -19.04341065	      0.10138030	      2.20793651	      1.34931778	    -14.97372411	     -6.79667538	     32.54353849	     90.00000001	      0.00000000	      0.00000000	     -1.16631599	     -8.94587448	    -22.66876210	     40.50238099	     90.00000001	      0.00000000	      0.00000000
      0.91000000	      8.90690337	     -0.82609091	     -4.10629366	      0.33451862	      0.83443080	     -0.29586876	     15.21420343	     -4.26567516	    -16.87193607	     32.60982766	     -2.37844468	      0.56914886	     11.50518859	     -2.94689550	     -7.52502736	    -20.41607031	      3.61948739	     -9.72069987	      3.54452540	      5.43823316	      0.06186364	     18.49771572	      3.22126488	     -7.52502736	    -18.27035701	     -0.04601986	      1.46706034	      1.16767292	    -15.00222318	     -6.96111852	     32.52222847	     90.00000001	      0.00000000	      0.00000000	     -0.36563316	     -9.08673056	    -21.86473788	     41.77357563	     90.00000001	      0.00000000	      0.00000000
      0.92000000	      9.14064168	     -0.95133961	     -3.51787677	      0.34958285	      0.83267161	     -0.29625262	     14.84607795	     -4.15903910	    -17.72062263	     28.17710354	     -0.94793278	      0.49178323	     11.78085181	     -1.89969684	     -7.52388359	    -22.18166322	      3.30032996	    -10.30951737	      2.97769332	      5.86814027	      0.05197055	     18.99875053	      4.22495807	     -7.52388359	    -18.45423942	      0.32130522	      0.71664446	      1.08957816	    -14.92476389	     -7.63684428	     32.27284706	     90.00000001	      0.00000000	      0.00000000	      0.13223497	     -9.51449079	    -19.67558368	     43.53405322	     90.00000001	      0.00000000	      0.00000000
      0.93000000	      8.39997961	     -0.27355231	     -3.31484643	      0.36395418	      0.82927983	     -0.29683346	     16.23839611	     -4.97584593	    -18.62162641	     24.94223998	      0.20141009	      0.43532421	     11.62444872	     -1.11202704	     -7.52344693	    -22.40511543	      4.14413848	    -11.09851695	      3.04746135	      5.72637583	      0.05318823	     19.22453118	      4.45055769	     -7.52344693	    -17.56073057	     -0.17774288	      0.15015286	      0.77374174	    -14.94808273	     -7.76805912	     32.31621375	     90.00000001	      0.00000000	      0.00000000	      1.01692973	     -9.60190865	    -19.18449730	     44.63819439	     90.00000001	      0.00000000	      0.00000000
      0.94000000	      8.70764261	     -0.32506138	     -2.65699249	      0.37909099	      0.82736597	     -0.29736607	     15.29843453	     -4.91743716	    -19.22773459	     20.14004279	      1.71876405	      0.35151006	     12.02882014	      1.73297619	     -7.52239850	    -24.08382894	      3.93046119	    -11.52541627	      2.80963587	      5.89240172	      0.04903740	     19.65257220	      5.72248271	     -7.52239850	    -17.86495125	      0.15704071	     -0.64265636	      0.72267173	    -14.88316332	     -8.62276966	     32.22746188	     90.00000001	      0.00000000	      0.00000000	      1.53939964	    -10.02883623	    -17.28260079	     46.32851140	     90.00000001	      0.00000000	      0.00000000
      0.95000000	      8.36711206	      0.22787462	     -2.29572770	      0.39381893	      0.82441195	     -0.29778934	     15.59389084	     -5.56786902	    -19.77409427	     16.46701171	      3.04811612	      0.28740357	     11.82670503	      4.02629219	     -7.52167851	    -24.75640133	      4.44929922	    -11.94171741	      2.99219037	      5.87641210	      0.05222357	     19.94676277	      6.44443009	     -7.52167851	    -17.44914675	     -0.20880937	     -1.24917011	      0.47036312	    -14.84528764	     -9.08262144	     32.32742025	     90.00000001	      0.00000000	      0.00000000	      2.30609411	    -10.24795340	    -16.43045131	     47.56982020	     90.00000001	      0.00000000	      0.00000000
      0.96000000	      8.17312384	      0.61896831	     -1.89911878	      0.40892604	      0.82160853	     -0.29802601	     15.59037250	     -5.99345665	    -20.39991349	     13.02224575	      4.20821100	      0.22728106	     11.62814911	      6.43022408	     -7.52106611	    -25.64164212	      4.73243813	    -12.24816414	      3.18893348	      5.83367096	      0.05565739	     20.13914801	      7.15797560	     -7.52106611	    -17.17723707	     -0.41402277	     -1.74486321	      0.14455874	    -14.80656305	     -9.58741692	     32.42428182	     90.00000001	      0.00000000	      0.00000000	      3.01142198	    -10.45120236	    -15.52010858	     48.79775698	     90.00000001	      0.00000000	      0.00000000
      0.97000000	      8.17907406	      0.62103381	     -1.40704702	      0.42430263	      0.81915885	     -0.29800806	     15.32581371	     -5.90099608	    -21.41965970	     10.08537843	      4.97583605	      0.17602306	     11.40112649	      9.18580058	     -7.51977348	    -26.69594606	      4.32805748	    -12.77755976	      3.61335614	      6.09570722	      0.06306496	     20.39851329	      8.23046741	     -7.51977348	    -17.15322595	     -0.18072762	     -2.19669277	     -0.13505498	    -14.76054703	    -10.64233562	     32.63468150	     90.00000001	      0.00000000	      0.00000000	      3.65021582	    -10.66866055	    -14.38105426	     49.91173039	     90.00000001	      0.00000000	      0.00000000
      0.98000000	      7.95375998	      1.09422507	     -1.09467780	      0.43943842	      0.81647650	     -0.29822034	     15.60051364	     -6.42342785	    -21.50410563	      8.13067519	      5.76983051	      0.14190705	     11.12647368	     10.83544014	     -7.51934315	    -27.34635450	      4.66250747	    -12.70690049	      4.14779227	      5.89140690	      0.07239263	     20.39402123	      8.70998524	     -7.51934315	    -16.88345825	     -0.47067917	     -2.58651907	     -0.43570470	    -14.81371940	    -10.91003387	     32.77531029	     90.00000001	      0.00000000	      0.00000000	      4.32053333	    -10.70488937	    -13.86129015	     50.95108242	     90.00000001	      0.00000000	      0.00000000
      0.99000000	      7.94568314	      1.04984616	     -0.70384823	      0.45494006	      0.81425150	     -0.29783601	     15.67688053	     -6.20806386	    -21.92854622	      6.89016537	      5.98797083	      0.12025607	     10.98627937	     12.50481232	     -7.51813189	    -28.07998027	      4.11890799	    -13.15374419	      5.16116180	      6.01451526	      0.09007927	     20.55453289	      9.75184007	     -7.51813189	    -16.84250657	     -0.23999775	     -2.83249643	     -0.73248626	    -14.77117884	    -11.71187670	     32.93735968	     90.00000001	      0.00000000	      0.00000000	      4.88756604	    -10.83351472	    -12.94139551	     51.88537170	     90.00000001	      0.00000000	      0.00000000
